<?xml version="1.0" encoding="UTF-8"?>
<!DOCTYPE svg PUBLIC "-//W3C//DTD SVG 1.1//EN" "http://www.w3.org/Graphics/SVG/1.1/DTD/svg11.dtd">
<svg xmlns="http://www.w3.org/2000/svg" version="1.1" width="1354px" height="1746px" style="shape-rendering:geometricPrecision; text-rendering:geometricPrecision; image-rendering:optimizeQuality; fill-rule:evenodd; clip-rule:evenodd" xmlns:xlink="http://www.w3.org/1999/xlink">
<g><path style="opacity:0.992" fill="#30d5c7" d="M -0.5,362.5 C -0.5,321.167 -0.5,279.833 -0.5,238.5C 9.63112,160.291 45.6311,97.1248 107.5,49C 154.446,15.9109 206.779,-0.089088 264.5,1C 288.64,-0.146208 312.64,1.18713 336.5,5C 332.5,5.33333 328.5,5.66667 324.5,6C 352.258,10.883 376.925,22.2164 398.5,40C 415.621,53.4518 430.288,69.1185 442.5,87C 449.158,87.4996 455.825,87.6663 462.5,87.5C 462.5,63.8333 462.5,40.1667 462.5,16.5C 511.167,16.5 559.833,16.5 608.5,16.5C 608.667,247.5 608.5,478.5 608,709.5C 607.133,746.05 593.633,776.884 567.5,802C 546.984,819.082 523.317,828.749 496.5,831C 361.167,831.5 225.834,831.667 90.5,831.5C 90.5,788.5 90.5,745.5 90.5,702.5C 204.5,702.667 318.5,702.5 432.5,702C 447.741,700.759 456.574,692.592 459,677.5C 459.5,624.168 459.667,570.834 459.5,517.5C 452.825,517.334 446.158,517.5 439.5,518C 404.714,568.575 356.381,595.575 294.5,599C 205.879,608.024 130.712,580.857 69,517.5C 30.0908,473.006 6.92412,421.339 -0.5,362.5 Z M 286.5,130.5 C 329.296,126.781 368.296,136.947 403.5,161C 435.921,186.657 454.754,220.157 460,261.5C 465.15,298.56 462.65,335.06 452.5,371C 437.001,413.833 408.001,443.499 365.5,460C 321.445,474.826 277.778,473.826 234.5,457C 182.943,432.753 153.777,392.253 147,335.5C 144.77,309.462 145.103,283.462 148,257.5C 158.662,195.84 193.829,155.673 253.5,137C 264.526,134.228 275.526,132.061 286.5,130.5 Z"/></g>
<g><path style="opacity:0.991" fill="#30d5c7" d="M 1353.5,539.5 C 1353.5,584.5 1353.5,629.5 1353.5,674.5C 1308.17,674.5 1262.83,674.5 1217.5,674.5C 1217.5,729.5 1217.5,784.5 1217.5,839.5C 1167.17,839.5 1116.83,839.5 1066.5,839.5C 1066.5,784.5 1066.5,729.5 1066.5,674.5C 932.5,674.5 798.5,674.5 664.5,674.5C 664.333,615.832 664.5,557.166 665,498.5C 759.252,339.665 853.252,180.665 947,21.5C 1037.1,20.5015 1127.26,20.1682 1217.5,20.5C 1217.5,193.5 1217.5,366.5 1217.5,539.5C 1262.83,539.5 1308.17,539.5 1353.5,539.5 Z M 1046.5,117.5 C 1053.17,117.5 1059.83,117.5 1066.5,117.5C 1066.5,258.167 1066.5,398.833 1066.5,539.5C 980.5,539.5 894.5,539.5 808.5,539.5C 808.075,532.385 808.575,525.385 810,518.5C 889.06,384.946 967.893,251.28 1046.5,117.5 Z"/></g>
<g><path style="opacity:0.992" fill="#30d5c7" d="M 339.5,1745.5 C 326.5,1745.5 313.5,1745.5 300.5,1745.5C 250.834,1743.93 203.167,1733.1 157.5,1713C 73.0735,1671.73 22.9068,1604.57 7,1511.5C 3.42378,1490.14 0.923783,1468.81 -0.5,1447.5C -0.5,1362.17 -0.5,1276.83 -0.5,1191.5C 1.33205,1145.18 11.1654,1100.52 29,1057.5C 58.3406,995.16 104.507,949.993 167.5,922C 225.294,898.886 285.294,889.552 347.5,894C 414.489,896.229 475.156,916.562 529.5,955C 579.407,992.929 612.241,1042.43 628,1103.5C 635.505,1132.7 639.838,1162.37 641,1192.5C 641.955,1282.85 641.622,1373.18 640,1463.5C 628.508,1619.36 546.008,1711.53 392.5,1740C 374.745,1742.48 357.078,1744.31 339.5,1745.5 Z M 306.5,1027.5 C 343.033,1025.2 377.699,1032.03 410.5,1048C 449.094,1070.96 473.594,1104.46 484,1148.5C 487.084,1161.67 489.084,1175 490,1188.5C 490.667,1275.83 490.667,1363.17 490,1450.5C 488.749,1490.25 476.749,1526.25 454,1558.5C 427.717,1588.39 394.55,1605.23 354.5,1609C 315.956,1614.14 278.29,1610.47 241.5,1598C 199.34,1579.56 172.174,1548.06 160,1503.5C 155.163,1486.15 152.163,1468.48 151,1450.5C 150.333,1362.5 150.333,1274.5 151,1186.5C 152.859,1147.91 165.192,1113.25 188,1082.5C 212.821,1054.71 243.655,1037.54 280.5,1031C 289.292,1029.65 297.959,1028.49 306.5,1027.5 Z"/></g>
<g><path style="opacity:0.992" fill="#30d5c7" d="M 1009.5,1745.5 C 996.5,1745.5 983.5,1745.5 970.5,1745.5C 916.154,1743.83 864.487,1731 815.5,1707C 737.997,1664.43 691.83,1599.26 677,1511.5C 673.276,1490.32 670.943,1468.99 670,1447.5C 669.333,1362.17 669.333,1276.83 670,1191.5C 671.472,1135.61 685.139,1082.94 711,1033.5C 749.006,971.21 803.173,929.71 873.5,909C 936.094,892.223 999.428,888.889 1063.5,899C 1134.82,910.401 1194.65,942.568 1243,995.5C 1280.06,1042.3 1301.73,1095.63 1308,1155.5C 1309.48,1167.79 1310.48,1180.13 1311,1192.5C 1311.67,1277.17 1311.67,1361.83 1311,1446.5C 1309.94,1499.82 1297.94,1550.48 1275,1598.5C 1243.53,1655.63 1197.36,1696.13 1136.5,1720C 1095.42,1735.38 1053.08,1743.88 1009.5,1745.5 Z M 976.5,1027.5 C 1013.03,1025.2 1047.7,1032.03 1080.5,1048C 1119.09,1070.96 1143.59,1104.46 1154,1148.5C 1157.08,1161.67 1159.08,1175 1160,1188.5C 1160.67,1275.83 1160.67,1363.17 1160,1450.5C 1158.75,1490.25 1146.75,1526.25 1124,1558.5C 1097.72,1588.39 1064.55,1605.23 1024.5,1609C 985.956,1614.14 948.29,1610.47 911.5,1598C 869.34,1579.56 842.174,1548.06 830,1503.5C 825.163,1486.15 822.163,1468.48 821,1450.5C 820.333,1362.5 820.333,1274.5 821,1186.5C 822.859,1147.91 835.192,1113.25 858,1082.5C 882.821,1054.71 913.655,1037.54 950.5,1031C 959.292,1029.65 967.959,1028.49 976.5,1027.5 Z"/></g>
</svg>
